<svg width="20" height="18" viewBox="0 0 20 18" fill="none" xmlns="http://www.w3.org/2000/svg">
<g clip-path="url(#clip0_64_2)">
<path d="M4.524 1.46767C6.74053 3.1317 9.12467 6.50567 10 8.31633C10.8754 6.5058 13.2594 3.13167 15.476 1.46767C17.0753 0.266967 19.6667 -0.662066 19.6667 2.29417C19.6667 2.88457 19.3282 7.25383 19.1296 7.96317C18.4395 10.4293 15.9248 11.0583 13.688 10.6776C17.598 11.3431 18.5926 13.5473 16.4445 15.7516C12.3649 19.9379 10.5809 14.7012 10.1235 13.3594C10.0397 13.1134 10.0005 12.9983 9.99994 13.0962C9.99936 12.9983 9.96015 13.1134 9.87635 13.3594C9.41922 14.7012 7.63525 19.9381 3.55535 15.7516C1.40722 13.5473 2.40185 11.3429 6.31192 10.6776C4.07499 11.0583 1.56025 10.4293 0.870255 7.96317C0.671715 7.25377 0.333221 2.8845 0.333221 2.29417C0.333221 -0.662066 2.92462 0.266967 4.52389 1.46767H4.524Z" fill="white"/>
</g>
<defs>
<clipPath id="clip0_64_2">
<rect width="20" height="18" fill="white"/>
</clipPath>
</defs>
</svg>
