<svg width="56" height="37" viewBox="0 0 56 37" fill="none" xmlns="http://www.w3.org/2000/svg">
<g clip-path="url(#clip0_30_20)">
<path d="M38.0689 5.721C28.4939 5.721 22.2689 14.171 12.8689 14.171C8.71389 14.171 6.28689 12.697 5.01889 11.214C4.98179 11.1711 4.96064 11.1168 4.95902 11.0601C4.9574 11.0034 4.97539 10.9479 5.00997 10.903C5.04455 10.8581 5.09358 10.8265 5.14878 10.8135C5.20397 10.8006 5.26195 10.8071 5.31289 10.832C6.68182 11.452 8.16611 11.7764 9.66889 11.784C19.6009 11.785 26.1809 0 39.1529 0C47.2839 0 51.5839 3.221 52.7009 9.1C53.4098 13.3647 54.3782 17.5822 55.6009 21.729C55.6382 21.8249 55.6556 21.9274 55.652 22.0302C55.6483 22.1331 55.6238 22.2341 55.5798 22.3271C55.5358 22.4202 55.4733 22.5033 55.3961 22.5713C55.3189 22.6394 55.2287 22.691 55.1309 22.723L53.3099 23.223C53.1576 23.267 53.0234 23.3587 52.9273 23.4848C52.8311 23.6108 52.778 23.7645 52.7759 23.923C53.3364 26.6269 53.4509 29.4042 53.1149 32.145C52.3799 37.478 46.7989 38.26 43.4619 35.256C39.0389 31.275 35.5179 29.82 31.1619 29.614C30.5289 29.584 30.4839 29.381 30.8679 28.976C32.8765 26.6082 34.6617 24.0597 36.2009 21.363C38.3089 17.952 41.2399 15.709 45.0709 15.709C46.8875 15.6354 48.6956 15.995 50.3459 16.758C50.3878 16.7801 50.4361 16.7867 50.4824 16.7765C50.5287 16.7663 50.5698 16.74 50.5985 16.7023C50.6272 16.6646 50.6416 16.618 50.6391 16.5707C50.6366 16.5234 50.6174 16.4785 50.5849 16.444C49.8154 15.608 48.8796 14.9422 47.8375 14.4894C46.7954 14.0366 45.6701 13.8069 44.5339 13.815C39.3889 13.815 35.9969 16.143 32.5059 21.081C26.6179 29.408 23.9869 31.963 15.7749 31.963C8.58689 31.963 3.27489 28.725 1.21889 25.163C0.972886 24.737 1.23389 24.468 1.64189 24.731C4.7216 26.6253 8.26325 27.6355 11.8789 27.651C17.6459 27.651 21.6949 25.741 23.8319 23.176C24.0549 22.909 23.8609 22.516 23.5319 22.616C21.3646 23.2614 19.1172 23.5981 16.8559 23.616C8.98189 23.616 2.12189 20.753 0.128886 16.403C-0.134114 15.828 0.00288606 15.631 0.562886 15.903C3.78743 17.3657 7.3 18.0835 10.8399 18.003C25.7549 18.003 26.1999 5.621 44.7849 7.78C44.9989 7.805 45.2089 7.58 45.0239 7.466C42.9329 6.20021 40.5085 5.59515 38.0679 5.73" fill="#FFAC27"/>
</g>
<defs>
<clipPath id="clip0_30_20">
<rect width="56" height="37" fill="white"/>
</clipPath>
</defs>
</svg>
