<svg width="44" height="32" viewBox="0 0 44 32" fill="none" xmlns="http://www.w3.org/2000/svg">
<g clip-path="url(#clip0_42_4)">
<path d="M12 10C12 11.1046 11.1046 12 10 12C8.89544 12 8 11.1046 8 10C8 8.89544 8.89544 8 10 8C11.1046 8 12 8.89544 12 10Z" fill="white"/>
<path d="M12 16C12 17.1046 11.1046 18 10 18C8.89544 18 8 17.1046 8 16C8 14.8954 8.89544 14 10 14C11.1046 14 12 14.8954 12 16Z" fill="white"/>
<path d="M18 16C18 17.1046 17.1046 18 16 18C14.8954 18 14 17.1046 14 16C14 14.8954 14.8954 14 16 14C17.1046 14 18 14.8954 18 16Z" fill="white"/>
<path d="M18 10C18 11.1046 17.1046 12 16 12C14.8954 12 14 11.1046 14 10C14 8.89544 14.8954 8 16 8C17.1046 8 18 8.89544 18 10Z" fill="white"/>
<path d="M24 10C24 11.1046 23.1046 12 22 12C20.8954 12 20 11.1046 20 10C20 8.89544 20.8954 8 22 8C23.1046 8 24 8.89544 24 10Z" fill="white"/>
<path d="M24 16C24 17.1046 23.1046 18 22 18C20.8954 18 20 17.1046 20 16C20 14.8954 20.8954 14 22 14C23.1046 14 24 14.8954 24 16Z" fill="white"/>
<path d="M30 10C30 11.1046 29.1046 12 28 12C26.8954 12 26 11.1046 26 10C26 8.89544 26.8954 8 28 8C29.1046 8 30 8.89544 30 10Z" fill="white"/>
<path d="M30 16C30 17.1046 29.1046 18 28 18C26.8954 18 26 17.1046 26 16C26 14.8954 26.8954 14 28 14C29.1046 14 30 14.8954 30 16Z" fill="white"/>
<path d="M36 10C36 11.1046 35.1046 12 34 12C32.8954 12 32 11.1046 32 10C32 8.89544 32.8954 8 34 8C35.1046 8 36 8.89544 36 10Z" fill="white"/>
<path d="M36 16C36 17.1046 35.1046 18 34 18C32.8954 18 32 17.1046 32 16C32 14.8954 32.8954 14 34 14C35.1046 14 36 14.8954 36 16Z" fill="white"/>
<path d="M2 14C2 8.34314 2 5.51472 3.75736 3.75736C5.51472 2 8.34314 2 14 2H30C35.6568 2 38.4852 2 40.2426 3.75736C42 5.51472 42 8.34314 42 14V18C42 23.6568 42 26.4852 40.2426 28.2426C38.4852 30 35.6568 30 30 30H14C8.34314 30 5.51472 30 3.75736 28.2426C2 26.4852 2 23.6568 2 18V14Z" stroke="white" stroke-width="3"/>
<path d="M12 24H32" stroke="white" stroke-width="3" stroke-linecap="round"/>
</g>
<defs>
<clipPath id="clip0_42_4">
<rect width="44" height="32" fill="white"/>
</clipPath>
</defs>
</svg>
