<svg width="20" height="16" viewBox="0 0 20 16" fill="none" xmlns="http://www.w3.org/2000/svg">
<g clip-path="url(#clip0_67_2)">
<path d="M19.9484 2.23489C19.8582 1.78075 19.6569 1.36516 19.3757 1.02184C19.3164 0.947033 19.2544 0.880041 19.1873 0.813048C18.689 0.312344 17.9897 0 17.2258 0H2.77426C2.01032 0 1.31352 0.312344 0.812931 0.813048C0.745939 0.880041 0.683986 0.947033 0.624533 1.02184C0.343165 1.36512 0.141797 1.78075 0.0541407 2.23489C0.018125 2.41016 0 2.59129 0 2.77442V12.9242C0 13.3135 0.0825783 13.6878 0.229844 14.0258C0.366446 14.3485 0.567853 14.6405 0.812892 14.8853C0.875002 14.9472 0.936682 15.0042 1.00399 15.0608C1.48391 15.4583 2.1034 15.6983 2.77426 15.6983H17.2258C17.8969 15.6983 18.5191 15.4583 18.9962 15.0583C19.0633 15.0042 19.1253 14.9472 19.1873 14.8853C19.4322 14.6405 19.6336 14.3485 19.773 14.0258V14.0233C19.9202 13.6853 20 13.3135 20 12.9242V2.77442C20 2.59129 19.9822 2.41016 19.9484 2.23489ZM1.81676 1.81676C2.06461 1.56918 2.39747 1.4193 2.77426 1.4193H17.2258C17.6026 1.4193 17.9384 1.56918 18.1833 1.81676C18.2271 1.86086 18.2684 1.91 18.3048 1.95883L10.7303 8.56021C10.5214 8.7433 10.2634 8.83373 10 8.83373C9.73932 8.83373 9.48143 8.7433 9.26974 8.56021L1.69813 1.95602C1.73164 1.90719 1.77293 1.86086 1.81676 1.81676ZM1.4193 12.9242V3.42473L6.90072 8.20658L1.42207 12.9833C1.4193 12.9652 1.4193 12.9448 1.4193 12.9242ZM17.2258 14.2787H2.77426C2.52891 14.2787 2.29934 14.2142 2.1034 14.1009L7.8838 9.06346L8.42345 9.53291C8.87506 9.92533 9.44018 10.1241 10 10.1241C10.5628 10.1241 11.1278 9.92533 11.5794 9.53291L12.1188 9.06346L17.8969 14.1009C17.7007 14.2142 17.4711 14.2787 17.2258 14.2787ZM18.5807 12.9242C18.5807 12.9448 18.5807 12.9652 18.5781 12.9833L13.0995 8.20935L18.5807 3.42727V12.9242Z" fill="white"/>
</g>
<defs>
<clipPath id="clip0_67_2">
<rect width="20" height="16" fill="white"/>
</clipPath>
</defs>
</svg>
