<svg width="22" height="34" viewBox="0 0 22 34" fill="none" xmlns="http://www.w3.org/2000/svg">
<path d="M21.8 15.904L20.6 1.504C20.5758 1.20266 20.4388 0.921555 20.2163 0.716877C19.9938 0.512198 19.7023 0.399031 19.4 0.4H2.6C2.29769 0.399031 2.00616 0.512198 1.78368 0.716877C1.56121 0.921555 1.42418 1.20266 1.4 1.504L0.199999 15.904C0.186718 16.0695 0.207912 16.2359 0.262242 16.3928C0.316573 16.5496 0.402857 16.6935 0.515639 16.8153C0.628422 16.9371 0.765249 17.0342 0.917471 17.1004C1.06969 17.1666 1.234 17.2005 1.4 17.2H5V19.6H3.8C3.48174 19.6 3.17651 19.7264 2.95147 19.9515C2.72643 20.1765 2.6 20.4817 2.6 20.8V30.4C2.6 30.7183 2.72643 31.0235 2.95147 31.2485C3.17651 31.4736 3.48174 31.6 3.8 31.6C4.11826 31.6 4.42348 31.4736 4.64853 31.2485C4.87357 31.0235 5 30.7183 5 30.4V29.2H7.4V32.8C7.4 33.1183 7.52643 33.4235 7.75147 33.6485C7.97651 33.8736 8.28174 34 8.6 34H13.4C13.7183 34 14.0235 33.8736 14.2485 33.6485C14.4736 33.4235 14.6 33.1183 14.6 32.8V29.2H17V30.4C17 30.7183 17.1264 31.0235 17.3515 31.2485C17.5765 31.4736 17.8817 31.6 18.2 31.6C18.5183 31.6 18.8235 31.4736 19.0485 31.2485C19.2736 31.0235 19.4 30.7183 19.4 30.4V20.8C19.4 20.4817 19.2736 20.1765 19.0485 19.9515C18.8235 19.7264 18.5183 19.6 18.2 19.6H17V17.2H20.6C20.766 17.2005 20.9303 17.1666 21.0825 17.1004C21.2347 17.0342 21.3716 16.9371 21.4844 16.8153C21.5971 16.6935 21.6834 16.5496 21.7378 16.3928C21.7921 16.2359 21.8133 16.0695 21.8 15.904ZM5 22H17V26.8H5V22ZM12.2 31.6H9.8V29.2H12.2V31.6ZM14.6 19.6H7.4V17.2H14.6V19.6ZM2.708 14.8L3.704 2.8H18.296L19.292 14.8H2.708Z" fill="white"/>
</svg>
