<svg width="718" height="545" viewBox="0 0 718 545" fill="none" xmlns="http://www.w3.org/2000/svg">
<g clip-path="url(#clip0_7_204)">
<mask id="mask0_7_204" style="mask-type:luminance" maskUnits="userSpaceOnUse" x="0" y="0" width="718" height="545">
<path d="M717.67 0H0V544.563H717.67V0Z" fill="white"/>
</mask>
<g mask="url(#mask0_7_204)">
<path d="M287.186 52.5271C278.442 67.5901 294.906 92.9704 278.313 98.2407L279.68 96.8737C289.696 84.5533 268.761 58.4767 278.777 46.1563C280.333 44.3491 281.669 42.3633 282.757 40.2407" fill="#2F2E41"/>
<path d="M369.072 273.513C369.358 272.005 369.311 270.453 368.933 268.966C368.555 267.479 367.856 266.093 366.884 264.905C365.913 263.718 364.693 262.758 363.31 262.093C361.927 261.428 360.415 261.074 358.881 261.057L337.268 198.263L325.304 213.512L348.156 272.185C348.297 274.765 349.38 277.203 351.199 279.037C353.018 280.872 355.446 281.975 358.024 282.139C360.602 282.303 363.151 281.515 365.187 279.925C367.223 278.335 368.605 276.053 369.072 273.513Z" fill="#FFB8B8"/>
<path d="M274.066 121.905C274.066 121.905 273.393 99.1748 293.72 112.196C314.046 125.217 358.302 247.195 358.302 247.195L336.278 259.111L286.282 147.487L274.066 121.905Z" fill="#375A7F"/>
<path d="M334.034 511.488L323.884 515.825L302.324 478.74L317.305 472.338L334.034 511.488Z" fill="#FFB6B6"/>
<path d="M346.906 526.784L339.627 529.895L335.391 523.578L335 531.872L315.695 540.121C314.769 540.517 313.742 540.606 312.762 540.376C311.782 540.146 310.902 539.609 310.249 538.843C309.596 538.078 309.205 537.123 309.133 536.12C309.061 535.116 309.312 534.115 309.848 533.264L320.715 516.029L317.746 509.082L334.376 503.12L346.906 526.784Z" fill="#2F2E41"/>
<path d="M174.924 524.067L163.9 523.528L160.731 480.749L177.003 481.544L174.924 524.067Z" fill="#FFB6B6"/>
<path d="M179.81 543.453L171.903 543.066L170.857 535.533L166.878 542.821L145.909 541.796C144.904 541.747 143.941 541.378 143.16 540.743C142.38 540.107 141.823 539.239 141.571 538.265C141.318 537.291 141.384 536.262 141.758 535.327C142.133 534.393 142.796 533.603 143.651 533.073L160.961 522.326L161.33 514.78L178.891 516.692L179.81 543.453Z" fill="#2F2E41"/>
<path d="M499.752 517.251C500.482 517.277 501.203 517.079 501.817 516.682C502.43 516.285 502.907 515.71 503.183 515.033C503.458 514.356 503.519 513.611 503.357 512.898C503.194 512.186 502.817 511.54 502.276 511.049C502.183 510.693 502.116 510.437 502.022 510.081C502.704 508.3 503.902 506.763 505.463 505.667C507.024 504.571 508.876 503.966 510.783 503.93C512.69 503.894 514.564 504.428 516.166 505.464C517.767 506.5 519.022 507.99 519.771 509.745C524.089 519.59 529.652 529.773 527.038 540.687C544.632 502.46 538.074 455.18 511.227 422.887C503.854 418.916 497.84 411.794 496.213 403.473C499.855 404.668 504.353 401.672 501.587 397.874C500.39 396.424 499.182 394.986 497.985 393.535C511.635 378.718 528.285 401.643 513.295 421.609C518.32 427.788 522.685 434.474 526.319 441.56C525.423 434.008 526.334 426.35 528.975 419.218C531.657 412.57 536.749 406.943 541.226 401.174C546.669 394.146 558.039 397.256 558.865 406.102C553.796 407.822 553.206 415.172 559.031 416.122C557.665 432.606 547.05 447.843 532.3 455.207C537.918 470.509 540.211 486.834 539.025 503.092C541.459 484.081 561.796 479.28 575.969 471.598C576.87 471.008 577.923 470.693 579 470.691C580.078 470.69 581.132 471.001 582.035 471.589C582.938 472.176 583.65 473.013 584.085 473.999C584.52 474.984 584.659 476.075 584.485 477.138C582.526 477.956 580.654 478.967 578.895 480.155C578.071 480.72 577.443 481.527 577.095 482.464C576.747 483.401 576.698 484.422 576.953 485.388C577.209 486.354 577.757 487.218 578.523 487.86C579.289 488.502 580.234 488.892 581.23 488.976C574.219 506.815 555.768 518.925 536.701 519.04C534.945 527.019 532.364 534.795 529 542.241L500.702 542.51C500.597 542.197 500.503 541.873 500.409 541.56C503.029 541.699 505.658 541.518 508.234 541.018C501.226 532.879 495.828 528.744 499.752 517.251Z" fill="#F2F2F2"/>
<path d="M202.774 245.985C202.774 245.985 180.355 307.083 179.992 313.92C179.63 320.757 173.237 407.217 167.874 412.241C162.512 417.264 146.118 495.149 158.874 501.241C171.63 507.333 211.874 497.241 211.874 497.241L225.874 405.241L230.63 334.757C230.63 334.757 245.109 500.733 271.37 500.245C297.63 499.757 329.63 489.757 329.63 489.757L292.874 389.241C292.874 389.241 293.394 270.242 284.874 246.241C276.355 222.239 202.774 245.985 202.774 245.985Z" fill="#2F2E41"/>
<path d="M269.298 88.5748L239.274 91.3249L234.437 106.173C234.437 106.173 209.311 119.972 214.874 126.241C220.438 132.51 213.63 174.757 213.63 174.757L215.168 209.05C215.168 209.05 213.516 232.809 208.573 238.283C203.63 243.757 190.698 257.18 199.836 250.758C231.874 228.241 287.874 247.241 287.874 247.241L279.874 198.241C279.874 198.241 298.045 118.016 290.874 111.241C283.703 104.465 276.937 103.609 276.937 103.609L269.298 88.5748Z" fill="#375A7F"/>
<path d="M111.534 244.003C113.042 243.722 114.471 243.114 115.719 242.221C116.967 241.328 118.004 240.173 118.757 238.836C119.51 237.499 119.961 236.013 120.078 234.484C120.195 232.954 119.974 231.417 119.433 229.981L170.073 187.019L151.518 181.418L105.167 224.036C102.815 225.105 100.938 227 99.8899 229.361C98.8421 231.723 98.6969 234.386 99.4817 236.847C100.267 239.309 101.927 241.396 104.148 242.715C106.37 244.034 108.998 244.492 111.534 244.003Z" fill="#FFB8B8"/>
<path d="M240.14 131.625C240.14 131.625 250.117 111.191 226.231 114.681C202.345 118.172 111.766 211.084 111.766 211.084L126.925 231.014L218.469 149.902L240.14 131.625Z" fill="#375A7F"/>
<path d="M201.242 96.9636L106.54 218.29C104.902 220.395 104.165 223.065 104.491 225.713C104.818 228.36 106.18 230.771 108.281 232.416C130.273 285.815 196.068 325.413 273.467 361.354C275.572 362.994 278.242 363.732 280.89 363.405C283.539 363.079 285.949 361.715 287.593 359.613L382.296 238.287C383.936 236.182 384.674 233.512 384.347 230.864C384.021 228.215 382.657 225.805 380.555 224.161C315.603 187.485 259.777 144.992 215.369 95.2226C213.263 93.5843 210.594 92.8477 207.946 93.174C205.298 93.5003 202.887 94.8631 201.242 96.9636Z" fill="#E6E6E6"/>
<path d="M375.649 235.527L346.823 272.457C329.214 294.881 303.447 309.425 275.15 312.912C246.853 316.399 218.326 308.547 195.8 291.069L115.015 228.012C113.818 227.077 113.041 225.706 112.854 224.199C112.667 222.693 113.085 221.173 114.017 219.974L205.528 102.737C206.465 101.542 207.837 100.767 209.344 100.583C210.851 100.399 212.37 100.82 213.567 101.754C254.432 154.523 309.134 195.588 374.659 227.496C375.854 228.431 376.629 229.801 376.815 231.307C377 232.812 376.581 234.33 375.649 235.527Z" fill="white"/>
<path d="M199.353 163.196L180.58 187.247C180.081 187.884 179.351 188.297 178.548 188.396C177.745 188.494 176.936 188.27 176.299 187.773C175.661 187.275 175.247 186.545 175.148 185.742C175.049 184.94 175.272 184.13 175.769 183.492L194.543 159.441C194.789 159.125 195.095 158.86 195.444 158.663C195.793 158.465 196.177 158.338 196.575 158.288C196.973 158.239 197.377 158.269 197.763 158.376C198.149 158.483 198.511 158.665 198.827 158.911C199.143 159.158 199.407 159.465 199.605 159.813C199.802 160.162 199.929 160.547 199.978 160.945C200.027 161.343 199.997 161.746 199.889 162.132C199.782 162.519 199.6 162.88 199.353 163.196Z" fill="#CCCCCC"/>
<path d="M234.566 145.356L193.338 198.174C193.092 198.49 192.786 198.754 192.437 198.951C192.088 199.149 191.704 199.276 191.306 199.325C190.909 199.374 190.505 199.344 190.119 199.237C189.733 199.13 189.372 198.948 189.056 198.701C188.74 198.455 188.476 198.149 188.278 197.8C188.081 197.451 187.954 197.067 187.905 196.67C187.856 196.272 187.886 195.868 187.993 195.482C188.1 195.096 188.282 194.735 188.528 194.419L229.756 141.601C230.002 141.284 230.309 141.019 230.657 140.821C231.006 140.623 231.39 140.496 231.789 140.446C232.187 140.397 232.59 140.427 232.977 140.533C233.364 140.64 233.725 140.822 234.042 141.069C234.358 141.316 234.622 141.623 234.82 141.972C235.017 142.321 235.144 142.705 235.193 143.104C235.241 143.502 235.211 143.905 235.104 144.292C234.996 144.678 234.814 145.04 234.566 145.356Z" fill="#CCCCCC"/>
<path d="M164.251 233.456C175.35 233.456 184.347 224.458 184.347 213.36C184.347 202.261 175.35 193.264 164.251 193.264C153.152 193.264 144.155 202.261 144.155 213.36C144.155 224.458 153.152 233.456 164.251 233.456Z" fill="#375A7F"/>
<path d="M236.755 187.1L186.119 251.971C185.591 252.509 184.883 252.834 184.13 252.883C183.378 252.933 182.633 252.704 182.039 252.24C181.444 251.776 181.041 251.109 180.906 250.367C180.772 249.625 180.915 248.859 181.309 248.216L231.945 183.345C232.473 182.807 233.181 182.482 233.934 182.432C234.686 182.383 235.431 182.612 236.025 183.076C236.62 183.54 237.023 184.206 237.157 184.949C237.292 185.691 237.149 186.456 236.755 187.1Z" fill="#CCCCCC"/>
<path d="M269.604 172.288L198.928 262.833C198.4 263.371 197.692 263.696 196.939 263.746C196.187 263.795 195.442 263.566 194.848 263.102C194.253 262.638 193.85 261.971 193.716 261.229C193.581 260.487 193.724 259.722 194.118 259.078L264.794 168.534C265.322 167.996 266.03 167.671 266.783 167.621C267.535 167.572 268.28 167.801 268.874 168.265C269.469 168.729 269.872 169.395 270.006 170.137C270.141 170.88 269.998 171.645 269.604 172.288Z" fill="#CCCCCC"/>
<path d="M269.359 212.549L218.722 277.42C218.194 277.958 217.486 278.283 216.733 278.332C215.981 278.382 215.236 278.153 214.642 277.689C214.047 277.225 213.644 276.558 213.51 275.816C213.375 275.074 213.519 274.308 213.912 273.665L264.548 208.794C265.077 208.256 265.785 207.931 266.537 207.881C267.29 207.832 268.034 208.061 268.629 208.525C269.223 208.989 269.626 209.655 269.761 210.398C269.895 211.14 269.752 211.905 269.359 212.549Z" fill="#CCCCCC"/>
<path d="M336.358 220.549L285.722 285.42C285.194 285.958 284.486 286.283 283.733 286.332C282.981 286.382 282.236 286.153 281.642 285.689C281.047 285.225 280.644 284.558 280.51 283.816C280.375 283.074 280.518 282.308 280.912 281.665L331.548 216.794C332.077 216.256 332.785 215.931 333.537 215.881C334.29 215.832 335.034 216.061 335.629 216.525C336.223 216.989 336.626 217.655 336.761 218.398C336.895 219.14 336.752 219.905 336.358 220.549Z" fill="#375A7F"/>
<path d="M302.207 197.737L231.532 288.282C231.003 288.82 230.295 289.145 229.543 289.194C228.79 289.244 228.046 289.015 227.451 288.551C226.857 288.087 226.454 287.42 226.319 286.678C226.184 285.936 226.328 285.17 226.721 284.527L297.397 193.983C297.925 193.445 298.633 193.12 299.386 193.07C300.139 193.021 300.883 193.25 301.478 193.714C302.072 194.178 302.475 194.844 302.61 195.586C302.744 196.328 302.601 197.094 302.207 197.737Z" fill="#CCCCCC"/>
<path d="M218.961 50.2437C218.959 55.1253 220.156 59.9328 222.446 64.244C224.736 68.5553 228.049 72.2385 232.095 74.9704C236.14 77.7023 240.795 79.3993 245.649 79.9124C250.504 80.4255 255.41 79.7391 259.938 77.9134C264.465 76.0877 268.475 73.1785 271.616 69.4413C274.756 65.704 276.932 61.2529 277.95 56.4788C278.969 51.7046 278.8 46.7534 277.459 42.0596C276.118 37.3659 273.644 33.0732 270.257 29.5584L270.113 29.4154C269.875 29.1648 269.636 28.9144 269.386 28.6757C269.384 28.6757 269.383 28.6754 269.381 28.6748L269.377 28.6723L269.375 28.6684L269.374 28.6638C269.064 28.3775 268.754 28.0912 268.431 27.8168C264.122 24.0387 258.815 21.5827 253.146 20.7427C247.477 19.9028 241.686 20.7146 236.466 23.0809C231.246 25.4472 226.819 29.2678 223.715 34.0852C220.61 38.9026 218.96 44.5126 218.961 50.2437Z" fill="#2F2E41"/>
<path d="M256.132 82.1515C269.943 82.1515 281.139 70.9551 281.139 57.1437C281.139 43.3323 269.943 32.136 256.132 32.136C242.32 32.136 231.124 43.3323 231.124 57.1437C231.124 70.9551 242.32 82.1515 256.132 82.1515Z" fill="#FFB8B8"/>
<path d="M229.472 63.8083C227.028 52.7926 230.561 40.4513 238.264 33.0973C242.138 29.4716 246.957 27.0126 252.166 26.0029C257.376 24.9932 262.764 25.4738 267.712 27.3893C268.341 27.6432 268.97 27.9211 269.587 28.2111L269.874 28.3464V28.3884C269.93 28.4269 269.986 28.4675 270.041 28.5085C270.158 28.6177 270.3 28.6961 270.455 28.7365C272.626 28.6797 274.785 29.0823 276.79 29.9181C278.795 30.7538 280.6 32.0038 282.088 33.5861C285.964 37.7916 287.789 44.5881 287.23 52.7233L287.212 52.9777L286.996 53.1129C284.061 54.9725 281.016 56.6514 277.877 58.1403C266.899 63.3024 256.876 64.2589 247.244 61.0607L247.067 61.0021L243.024 54.2262C242.194 58.8996 242.637 74.4009 237.874 75.2407L229.576 64.2755L229.472 63.8083Z" fill="#2F2E41"/>
<path d="M176.829 85.5823C185.339 81.1898 174.394 65.2479 176.594 55.9271C178.793 46.6062 194.631 43.6083 195.639 34.0848C196.648 24.5613 199.022 14.7388 205.306 7.51233C209.322 2.8946 215.239 -0.514371 221.331 0.0640286C223.392 0.259722 225.387 0.897368 227.18 1.93354C228.973 2.9697 230.521 4.38006 231.719 6.06853C232.918 7.757 233.738 9.6839 234.125 11.718C234.511 13.7522 234.455 15.8457 233.959 17.8561C235.694 15.3984 240.183 15.931 241.294 18.7266C242.282 21.2119 240.1 24.2223 237.531 24.4422C234.171 28.5922 230.323 32.9965 225.058 33.8336C224.219 34.0262 223.348 34.0258 222.509 33.8322C221.671 33.6386 220.887 33.2571 220.217 32.7163C218.979 31.5269 218.882 29.1489 220.352 28.26C213.736 30.8882 209.857 38.0416 208.875 45.0926C207.893 52.1436 209.251 59.2779 210.146 66.3404C211.041 73.4029 211.427 80.8324 208.658 87.3909C205.386 95.1397 197.853 100.693 189.633 102.475C181.412 104.256 172.657 102.515 165.216 98.5931C157.775 94.671 151.57 88.6837 146.501 81.9712C155.232 88.1714 167.313 90.4942 176.829 85.5823Z" fill="#2F2E41"/>
<path d="M244.186 55.5271C235.442 70.5901 251.906 95.9704 235.313 101.241L236.68 99.8737C246.696 87.5533 225.761 61.4767 235.777 49.1563C237.333 47.3491 238.669 45.3633 239.757 43.2407" fill="#2F2E41"/>
<path d="M230.64 63.5803C230.64 63.5803 238.048 35.9286 269.803 29.5464C269.839 29.5346 269.958 29.4869 270.113 29.4154C270.209 29.3557 270.328 29.296 270.447 29.2364C270.09 29.0335 269.744 28.8547 269.386 28.6756L269.381 28.6747L269.377 28.6722L269.375 28.6682L269.374 28.6637C269.064 28.3774 268.754 28.0911 268.431 27.8167L267.525 27.8526C267.525 27.8526 235.662 22.8066 230.64 63.5803Z" fill="#FD6584"/>
<path d="M5.29651e-06 543.373C-0.0004621 543.529 0.0300094 543.684 0.0896507 543.829C0.149292 543.973 0.236938 544.105 0.347539 544.215C0.458141 544.326 0.58951 544.414 0.734106 544.473C0.878701 544.533 1.03366 544.563 1.19007 544.563H716.48C716.796 544.563 717.098 544.437 717.322 544.214C717.545 543.991 717.67 543.688 717.67 543.373C717.67 543.057 717.545 542.754 717.322 542.531C717.098 542.308 716.796 542.183 716.48 542.183H1.19001C1.03361 542.182 0.878661 542.213 0.734075 542.272C0.58949 542.332 0.458118 542.42 0.347524 542.53C0.236931 542.641 0.149291 542.772 0.0896507 542.917C0.0300108 543.061 -0.000455426 543.216 5.29651e-06 543.373Z" fill="#CBCBCB"/>
</g>
</g>
<defs>
<clipPath id="clip0_7_204">
<rect width="718" height="545" fill="white"/>
</clipPath>
</defs>
</svg>
